<?xml version="1.0" encoding="UTF-8"?>
<svg id="Logo" xmlns="http://www.w3.org/2000/svg" viewBox="0 0 2000 2000">
  <defs>
    <style>
      .cls-1 {
        fill: #607cf9;
      }

      .cls-2 {
        fill: #fc4750;
      }

      .cls-3 {
        fill: #7cf08d;
      }
    </style>
  </defs>
  <g id="Graphic_Element" data-name="Graphic Element">
    <path id="Green_Element_Research_" data-name="Green Element (Research)" class="cls-3" d="M1678.09,955.33l14.01-2.48,12.24,102.45-15.1.05c-4.01.01-8.01.25-11.9.72-3.78.45-7.72,1.17-11.72,2.13l-14.7,3.52-12.23-102.33,14.1-.98c8.7-.61,17.21-1.64,25.3-3.07ZM1765.44,1147.14c-2.69-22.54-14.92-41.62-32.16-53.69-11.42-8.01-25.05-12.92-39.57-13.74-4.43-.25-8.94-.14-13.5.4-4.56.55-8.96,1.5-13.21,2.79-13.92,4.22-26,12.2-35.22,22.68-13.9,15.8-21.29,37.22-18.6,59.76l41.35,345.98c5.02,42.04,43.18,72.05,85.23,67.03,42.04-5.02,72.05-43.18,67.03-85.23l-41.35-345.98ZM1613.96,956.41l-14.35,23.2-64.62-17.32-1.6-52.82c-22.28-11.73-41.98-27.01-58.57-44.95l-51.45,12.13-33.45-57.94,36.23-38.49c-7.24-23.34-10.63-48.04-9.65-73.2l-44.95-27.8,17.32-64.62,52.82-1.6c11.73-22.28,27.01-41.98,44.95-58.57l-12.13-51.45,57.94-33.45,38.49,36.23c23.34-7.24,48.04-10.63,73.2-9.65l27.8-44.95,64.62,17.32,1.6,52.82c22.28,11.73,41.98,27.01,58.57,44.95l51.45-12.13,33.45,57.94-36.23,38.49c7.24,23.34,10.63,48.04,9.65,73.2l44.95,27.8-17.32,64.62-52.82,1.6c-11.73,22.28-27.01,41.98-44.95,58.57l12.13,51.45-57.94,33.45-24.35-22.92-14.15-13.31c-8.06,2.5-16.3,4.51-24.65,6.07-8.78,1.64-17.69,2.74-26.7,3.29-7.23.44-14.52.57-21.85.29l-13.45,21.74ZM1604.53,831.97c64.39,17.25,130.57-20.96,147.83-85.35s-20.96-130.57-85.35-147.83c-64.39-17.25-130.58,20.96-147.83,85.35-17.25,64.39,20.96,130.57,85.35,147.83Z"/>
    <path id="Red_Element_Robotics_" data-name="Red Element (Robotics)" class="cls-2" d="M1429.23,1508.64l-12.82-97.66v-365.39h40.13c19.45,0,35.64,13.86,39.27,32.24.5,2.53.77,5.13.77,7.8v109.1c0,22.12-17.93,40.05-40.05,40.05v37.66c24.19,0,45.8-11.06,60.06-28.4l32.67,248.92c-.77-.35-1.54-.74-2.32-1.08-28.07-12.04-59.14-12.43-87.5-1.1-11.1,4.43-21.24,10.47-30.22,17.84ZM1555.75,1542.43c-6.63-6.56-14.57-12.02-23.66-15.93-35.94-15.42-77.12-1.22-96.36,31.7-1.59,2.72-3.05,5.56-4.33,8.53-11.21,26.13-6.75,55.03,9.15,76.26,7.78,10.39,18.29,18.95,31.07,24.43,38.91,16.69,83.99-1.32,100.69-40.23.22-.52.42-1.05.63-1.57,11.87-29.42,4.18-62.05-17.2-83.19ZM707.6,1558.21c-19.24-32.92-60.42-47.12-96.36-31.7-9.09,3.9-17.03,9.37-23.66,15.93-21.38,21.14-29.07,53.77-17.2,83.19.21.52.4,1.05.63,1.57,16.7,38.91,61.77,56.92,100.69,40.23,12.78-5.48,23.29-14.05,31.07-24.43,15.91-21.23,20.37-50.13,9.16-76.26-1.28-2.97-2.73-5.81-4.33-8.53ZM647.52,1077.83c-.5,2.53-.77,5.13-.77,7.8v109.1c0,22.12,17.93,40.05,40.04,40.05v37.66c-24.16,0-45.78-11.09-60.05-28.44l-32.67,248.97c.78-.35,1.54-.74,2.32-1.08,28.07-12.04,59.14-12.43,87.5-1.1,11.1,4.43,21.24,10.47,30.22,17.84l12.82-97.68v-365.37h-40.13c-19.44,0-35.64,13.86-39.27,32.24ZM903.92,1749.38c0,9.18,7.44,16.63,16.63,16.63h302.23c9.18,0,16.63-7.44,16.63-16.63v-148.8h-335.48v148.8ZM1336.09,514.6l65.81,14.75v69.2l-65.7,14.72c-2.54,13.8-6.14,27.23-10.71,40.21l49.6,45.66-34.6,59.93-64.3-20.11c-9.01,10.54-18.83,20.38-29.35,29.42l20.14,64.4-59.93,34.6-45.58-49.52c-12.97,4.59-26.39,8.22-40.18,10.79l-14.75,65.81h-69.2l-14.72-65.69c-13.8-2.54-27.23-6.14-40.21-10.71l-45.66,49.6-59.93-34.6,20.11-64.3c-10.54-9.01-20.38-18.83-29.42-29.35l-64.4,20.14-34.6-59.93,49.52-45.58c-4.59-12.97-8.22-26.39-10.79-40.18l-65.81-14.75v-69.2l65.69-14.72c2.54-13.8,6.14-27.23,10.71-40.21l-49.6-45.66,34.6-59.93,64.3,20.11c9.01-10.54,18.83-20.38,29.35-29.42l-20.14-64.4,59.93-34.6,45.58,49.52c12.97-4.59,26.39-8.22,40.18-10.79l14.75-65.81h69.2l14.72,65.69c13.8,2.54,27.23,6.14,40.21,10.71l45.66-49.6,59.93,34.6-20.11,64.3c10.54,9.01,20.38,18.83,29.42,29.35l64.4-20.14,34.6,59.93-49.52,45.58c4.59,12.97,8.22,26.39,10.79,40.18ZM1219.62,564.23c0-81.71-66.24-147.96-147.96-147.96s-147.96,66.24-147.96,147.96,66.24,147.96,147.96,147.96,147.96-66.24,147.96-147.96ZM1344.42,972.65h-545.52c-18.96,0-34.32,15.37-34.32,34.32v521.61c0,18.96,15.37,34.32,34.32,34.32h545.52c18.96,0,34.32-15.37,34.32-34.32v-521.61c0-18.96-15.37-34.32-34.32-34.32Z"/>
    <path id="Blue_Element_Teamwork_" data-name="Blue Element (Teamwork)" class="cls-1" d="M726.83,707.02l44.95-27.8-17.32-64.62-52.82-1.6c-11.73-22.28-27.01-41.98-44.95-58.57l12.13-51.45-57.94-33.45-38.49,36.23c-23.34-7.24-48.04-10.63-73.2-9.65l-27.8-44.95-64.62,17.32-1.6,52.82c-22.28,11.73-41.98,27.01-58.57,44.95l-51.45-12.13-33.45,57.94,36.23,38.49c-7.24,23.34-10.63,48.04-9.65,73.2l-44.95,27.8,17.32,64.62,52.82,1.6c11.73,22.28,27.01,41.98,44.95,58.57l-12.13,51.45,57.94,33.45,38.49-36.23c23.34,7.24,48.04,10.63,73.2,9.65l27.8,44.95,64.62-17.32,1.6-52.82c22.28-11.73,41.98-27.01,58.57-44.95l51.45,12.13,33.45-57.94-36.23-38.49c7.24-23.34,10.63-48.04,9.65-73.2ZM538.79,831.97c-64.39,17.25-130.57-20.96-147.83-85.35-17.25-64.39,20.96-130.57,85.35-147.83,64.39-17.25,130.57,20.96,147.83,85.35,17.25,64.39-20.96,130.57-85.35,147.83ZM547.62,1040.6l-29.23,222.75-31.05,236.56c-5.89,44.87-42.23,77.98-87.49,77.98l-178.59-21.43c-57.67-6.92-104.44-50.59-114.4-107.81-.06-.32-.11-.65-.17-.97h-.03c-46.64-268.41,157.83-475.66,430.27-421.98,6.93,1.36,11.62,7.89,10.7,14.89Z"/>
  </g>
</svg>